#!OML:ASF H:\MichaelJackson\Top Level 1\Subject 1\Session 1\male.ASF
:FULLY-SPECIFIED
:DEGREES
260
root 2.68644 15.4858 -16.3888 5.76497 6.00999 4.51019
lowerback -2.50589 -2.68941 -1.66149
upperback -2.33819 -3.61279 -6.92989
thorax -1.36204 -1.85486 -6.30454
lowerneck -7.01351 -0.795707 1.66373
upperneck 3.28189 -1.51265 5.78277
head 2.29493 -0.556243 1.50302
rclavicle 2.6339e-015 1.27222e-014
rhumerus -30.3542 50.6804 -26.5408
rradius 91.6419
rwrist -30.861
rhand 37.9601 -14.2171
rfingers 7.12502
rthumb 60.6837 -27.259
lclavicle 2.6339e-015 1.27222e-014
lhumerus -57.1 -36.7352 112.237
lradius 51.0465
lwrist 18.5419
lhand 43.526 28.3881
lfingers 7.12502
lthumb 65.2457 35.1506
rfemur -18.061 -17.2346 -7.75285
rtibia 45.1749
rfoot -16.4162 -13.0711
rtoes -42.0391
lfemur -7.31781 -9.66938 5.85688
ltibia 18.2178
lfoot -24.9386 -19.5547
ltoes -27.5632
261
root 2.64524 15.4446 -16.4114 5.74576 4.98278 4.69756
lowerback -2.43394 -2.51373 -1.76353
upperback -2.36739 -3.38564 -7.08384
thorax -1.41468 -1.7422 -6.40518
lowerneck -6.97121 -0.679589 1.76301
upperneck 3.2189 -1.36739 5.89897
head 2.26348 -0.48159 1.52891
rclavicle -2.79789e-014 -1.03368e-013
rhumerus -25.8937 48.5834 -22.2999
rradius 84.6378
rwrist -31.0026
rhand 37.2546 -15.905
rfingers 7.12502
rthumb 60.083 -29.5979
lclavicle -2.79789e-014 -1.03368e-013
lhumerus -57.2823 -37.0447 112.375
lradius 51.0042
lwrist 19.3911
lhand 43.232 28.8402
lfingers 7.12502
lthumb 65.0141 35.9936
rfemur -19.0006 -18.0323 -7.96002
rtibia 45.8302
rfoot -17.5565 -11.6882
rtoes -42.1578
lfemur -6.56495 -9.44197 5.33331
ltibia 18.244
lfoot -25.5328 -16.05
ltoes -28.9266
262
root 2.60897 15.4059 -16.4361 5.70601 4.02557 4.84488
lowerback -2.3297 -2.37122 -1.89148
upperback -2.37243 -3.20234 -7.1667
thorax -1.45834 -1.64979 -6.41476
lowerneck -6.96031 -0.569277 1.80342
upperneck 3.13637 -1.22338 5.9955
head 2.23169 -0.409069 1.55848
rclavicle -4.73604e-014 -4.77083e-015
rhumerus -21.6792 45.8903 -18.8003
rradius 77.1074
rwrist -30.4229
rhand 34.5177 -17.0947
rfingers 7.12502
rthumb 57.7162 -33.068
lclavicle -4.73604e-014 -4.77083e-015
lhumerus -57.4091 -37.2861 112.553
lradius 51.0081
lwrist 20.3161
lhand 42.6629 29.3995
lfingers 7.12502
lthumb 64.5624 37.2885
rfemur -20.0099 -18.8582 -8.11513
rtibia 46.618
rfoot -18.5357 -10.1842
rtoes -42.2262
lfemur -5.85042 -9.42058 4.80323
ltibia 18.2958
lfoot -25.8809 -12.3136
ltoes -30.1835
263
root 2.57719 15.3697 -16.4614 5.64962 3.18882 4.91518
lowerback -2.19988 -2.26591 -2.0038
upperback -2.35978 -3.06873 -7.16686
thorax -1.49887 -1.58123 -6.3446
lowerneck -6.97942 -0.469878 1.78834
upperneck 3.0659 -1.08848 6.04777
head 2.20949 -0.342331 1.58311
rclavicle 4.01048e-014 3.18055e-014
rhumerus -17.7712 42.6376 -16.0191
rradius 69.3341
rwrist -28.9723
rhand 29.7075 -18.121
rfingers 7.12502
rthumb 53.4438 -37.3282
lclavicle 4.01048e-014 3.18055e-014
lhumerus -57.5091 -37.4691 112.784
lradius 51.0567
lwrist 21.1614
lhand 41.9504 29.9264
lfingers 7.12502
lthumb 63.9909 38.6986
rfemur -21.0093 -19.7147 -8.16976
rtibia 47.4643
rfoot -19.4076 -8.6463
rtoes -42.2157
lfemur -5.20026 -9.63174 4.33445
ltibia 18.3547
lfoot -25.9858 -8.51179
ltoes -31.3396
264
root 2.54926 15.3356 -16.4857 5.58515 2.50359 4.88627
lowerback -2.06706 -2.1954 -2.07211
upperback -2.32809 -2.97994 -7.07462
thorax -1.52281 -1.53436 -6.2015
lowerneck -7.04221 -0.386283 1.71742
upperneck 3.03483 -0.969881 6.0254
head 2.2082 -0.284775 1.59307
rclavicle -1.22004e-014 -4.77083e-014
rhumerus -14.2086 38.7495 -13.8675
rradius 61.6662
rwrist -26.6773
rhand 22.5789 -19.5093
rfingers 7.12502
rthumb 46.9295 -42.2065
lclavicle -1.22004e-014 -4.77083e-014
lhumerus -57.5725 -37.6062 113.061
lradius 51.1191
lwrist 21.7663
lhand 41.2549 30.1466
lfingers 7.12502
lthumb 63.4269 39.7426
rfemur -21.9235 -20.5872 -8.0984
rtibia 48.296
rfoot -20.186 -7.18485
rtoes -42.1577
lfemur -4.62981 -10.0666 3.97379
ltibia 18.4059
lfoot -25.8814 -4.79955
ltoes -32.3023
265
root 2.52445 15.3037 -16.508 5.5337 1.96481 4.76847
lowerback -1.94487 -2.14501 -2.07313
upperback -2.29322 -2.91675 -6.90916
thorax -1.53944 -1.50044 -6.01963
lowerneck -7.14351 -0.324221 1.60633
upperneck 3.05891 -0.876339 5.91255
head 2.23204 -0.240721 1.5803
rclavicle -1.36913e-014 -5.40694e-014
rhumerus -11.0767 34.0927 -12.3035
rradius 54.4521
rwrist -23.6081
rhand 12.8636 -22.3509
rfingers 7.12502
rthumb 37.837 -48.1943
lclavicle -1.36913e-014 -5.40694e-014
lhumerus -57.6167 -37.7077 113.362
lradius 51.1921
lwrist 22.042
lhand 40.7604 30.0256
lfingers 7.12502
lthumb 63.0224 40.1854
rfemur -22.7324 -21.4496 -7.91098
rtibia 49.0594
rfoot -20.8677 -5.92284
rtoes -42.1457
lfemur -4.14173 -10.6971 3.72137
ltibia 18.4306
lfoot -25.6117 -1.22565
ltoes -33.0445
266
root 2.50141 15.2741 -16.5268 5.49828 1.57579 4.59823
lowerback -1.83495 -2.10506 -2.01932
upperback -2.26055 -2.86635 -6.69612
thorax -1.55298 -1.47323 -5.81939
lowerneck -7.28059 -0.287764 1.46546
upperneck 3.14179 -0.813784 5.71145
head 2.28198 -0.213139 1.54352
rclavicle 2.9271e-014 1.74931e-014
rhumerus -8.44226 28.483 -11.2763
rradius 48.0068
rwrist -19.9078
rhand -0.044641 -28.3325
rfingers 7.12502
rthumb 25.5476 -56.6394
lclavicle 2.9271e-014 1.74931e-014
lhumerus -57.6518 -37.7823 113.67
lradius 51.2665
lwrist 21.9683
lhand 40.5236 29.5021
lfingers 7.12502
lthumb 62.8278 39.9257
rfemur -23.3913 -22.2796 -7.66841
rtibia 49.7306
rfoot -21.5026 -4.82868
rtoes -42.1351
lfemur -3.7243 -11.5269 3.54893
ltibia 18.4135
lfoot -25.1657 2.118
ltoes -33.4928
267
root 2.47965 15.2466 -16.5421 5.49494 1.29659 4.42383
lowerback -1.75519 -2.05271 -1.92999
upperback -2.23685 -2.7978 -6.47392
thorax -1.55892 -1.43739 -5.63135
lowerneck -7.42807 -0.283046 1.32587
upperneck 3.25394 -0.790794 5.43766
head 2.34382 -0.206937 1.48154
rclavicle -2.28602e-014 9.54166e-015
rhumerus -6.36929 21.8423 -10.7093
rradius 42.6619
rwrist -15.8256
rhand -13.7471 -37.8184
rfingers 7.12502
rthumb 12.373 -67.4323
lclavicle -2.28602e-014 9.54166e-015
lhumerus -57.679 -37.8493 113.962
lradius 51.3306
lwrist 21.6142
lhand 40.5415 28.6112
lfingers 7.12502
lthumb 62.8425 39.015
rfemur -23.9451 -23.0474 -7.4257
rtibia 50.316
rfoot -22.0813 -3.8644
rtoes -42.1016
lfemur -3.36128 -12.5822 3.40362
ltibia 18.3448
lfoot -24.6018 5.31226
ltoes -33.8171
268
root 2.45909 15.2207 -16.5539 5.53545 1.08722 4.28884
lowerback -1.70552 -1.97656 -1.819
upperback -2.23601 -2.69736 -6.28202
thorax -1.57208 -1.38653 -5.48916
lowerneck -7.55852 -0.305661 1.21459
upperneck 3.3723 -0.8039 5.13365
head 2.40506 -0.219876 1.40312
rclavicle -2.21521e-014 1.43125e-014
rhumerus -4.82738 14.3106 -10.5044
rradius 38.6003
rwrist -11.7475
rhand -25.2736 -49.6971
rfingers 7.12502
rthumb 1.24736 -79.6732
lclavicle -2.21521e-014 1.43125e-014
lhumerus -57.7047 -37.9056 114.215
lradius 51.3744
lwrist 21.0978
lhand 40.7562 27.5444
lfingers 7.12502
lthumb 63.019 37.7089
rfemur -24.4473 -23.7754 -7.22561
rtibia 50.8385
rfoot -22.6087 -2.96709
rtoes -42.0322
lfemur -3.03891 -13.8657 3.2353
ltibia 18.2204
lfoot -23.9264 8.3869
ltoes -34.0687
269
root 2.4399 15.196 -16.5628 5.63115 0.908682 4.21692
lowerback -1.70552 -1.87496 -1.70654
upperback -2.25431 -2.5617 -6.14117
thorax -1.57734 -1.31879 -5.40379
lowerneck -7.66552 -0.345564 1.15734
upperneck 3.46869 -0.843122 4.8398
head 2.45502 -0.246004 1.31702
rclavicle 5.13734e-015 1.43125e-014
rhumerus -3.76978 6.54239 -10.4942
rradius 35.972
rwrist -8.42739
rhand -33.2778 -60.1517
rfingers 7.12502
rthumb -6.48238 90.0325
lclavicle 5.13734e-015 1.43125e-014
lhumerus -57.7018 -37.936 114.397
lradius 51.3905
lwrist 20.5643
lhand 41.0912 26.5526
lfingers 7.12502
lthumb 63.2933 36.3373
rfemur -24.9504 -24.4528 -7.08482
rtibia 51.3264
rfoot -23.0841 -2.10193
rtoes -41.905
lfemur -2.75401 -15.3272 3.02123
ltibia 18.0461
lfoot -23.1685 11.3192
ltoes -34.2128
270
root 2.42268 15.1725 -16.5694 5.77488 0.7375 4.20464
lowerback -1.75408 -1.76056 -1.60222
upperback -2.28245 -2.40745 -6.05108
thorax -1.56631 -1.24222 -5.36911
lowerneck -7.75209 -0.384236 1.17267
upperneck 3.52995 -0.88737 4.58601
head 2.48943 -0.273597 1.23058
rclavicle 3.2992e-014 1.59028e-014
rhumerus -3.14134 -0.45321 -10.4877
rradius 34.7527
rwrist -6.8252
rhand -38.5389 -66.7747
rfingers 7.12502
rthumb -11.559 96.4359
lclavicle 3.2992e-014 1.59028e-014
lhumerus -57.6356 -37.9088 114.489
lradius 51.3577
lwrist 20.1229
lhand 41.4552 25.7896
lfingers 7.12502
lthumb 63.59 35.152
rfemur -25.4777 -25.0677 -6.99356
rtibia 51.7978
rfoot -23.5039 -1.28646
rtoes -41.7448
lfemur -2.50178 -16.8726 2.77179
ltibia 17.8384
lfoot -22.3809 14.0545
ltoes -34.2776
271
root 2.40797 15.1502 -16.5745 5.95788 0.556727 4.22833
lowerback -1.84058 -1.64747 -1.50009
upperback -2.32113 -2.25427 -6.00326
thorax -1.54682 -1.16675 -5.3788
lowerneck -7.80254 -0.404965 1.28078
upperneck 3.55226 -0.917461 4.39117
head 2.50371 -0.29223 1.1473
rclavicle -2.71015e-014 -8.42847e-014
rhumerus -2.91275 -5.74083 -10.3337
rradius 34.7657
rwrist -7.6295
rhand -42.1318 -68.6911
rfingers 7.12502
rthumb -15.0221 98.1262
lclavicle -2.71015e-014 -8.42847e-014
lhumerus -57.5279 -37.8053 114.51
lradius 51.2817
lwrist 19.8905
lhand 41.6369 25.3736
lfingers 7.12502
lthumb 63.7374 34.5216
rfemur -26.0487 -25.6085 -6.91661
rtibia 52.263
rfoot -23.8658 -0.579899
rtoes -41.5977
lfemur -2.28191 -18.3694 2.52345
ltibia 17.6131
lfoot -21.622 16.5199
ltoes -34.2395
